<svg version="1.1" id="Layer_1" xmlns="http://www.w3.org/2000/svg" xmlns:xlink="http://www.w3.org/1999/xlink" x="0px" y="0px"
	 width="100%" viewBox="0 0 556 628" enable-background="new 0 0 556 628" xml:space="preserve">
<path fill="#FFFFFF" opacity="1.000000" stroke="none" 
	d="
M297.000000,629.000000 
	C198.000000,629.000000 99.500000,629.000000 1.000000,629.000000 
	C1.000000,419.666656 1.000000,210.333328 1.000000,1.000000 
	C186.333328,1.000000 371.666656,1.000000 557.000000,1.000000 
	C557.000000,210.333328 557.000000,419.666656 557.000000,629.000000 
	C470.500000,629.000000 384.000000,629.000000 297.000000,629.000000 
M548.838928,377.500000 
	C548.838745,313.182953 548.789734,248.865829 548.873901,184.548874 
	C548.894165,169.052032 542.760071,157.091965 529.306702,149.318726 
	C452.473450,104.925217 375.599701,60.601799 298.690613,16.339926 
	C295.420990,14.458225 291.767151,13.046248 288.118317,12.057631 
	C276.245331,8.840741 266.032257,13.261681 255.956070,19.092936 
	C181.315979,62.288429 106.620857,105.389046 31.890316,148.427933 
	C17.938810,156.462891 10.929618,168.095703 10.949171,184.331421 
	C11.054723,271.975220 11.055118,359.619263 10.948656,447.263062 
	C10.928978,463.463562 17.780472,475.179749 31.755886,483.241547 
	C107.178276,526.749512 182.575745,570.301086 257.889648,613.996399 
	C272.889252,622.698792 287.188507,622.578247 302.216705,613.859314 
	C377.385864,570.248291 452.685425,526.861938 527.992676,483.489471 
	C541.988342,475.428802 548.933960,463.624786 548.863831,447.481964 
	C548.764038,424.488403 548.838745,401.494019 548.838928,377.500000 
z"/>
<path fill="#4B4B4B" opacity="1.000000" stroke="none" 
	d="
M548.838867,378.000000 
	C548.838745,401.494019 548.764038,424.488403 548.863831,447.481964 
	C548.933960,463.624786 541.988342,475.428802 527.992676,483.489471 
	C452.685425,526.861938 377.385864,570.248291 302.216705,613.859314 
	C287.188507,622.578247 272.889252,622.698792 257.889648,613.996399 
	C182.575745,570.301086 107.178276,526.749512 31.755886,483.241547 
	C17.780472,475.179749 10.928978,463.463562 10.948656,447.263062 
	C11.055118,359.619263 11.054723,271.975220 10.949171,184.331421 
	C10.929618,168.095703 17.938810,156.462891 31.890316,148.427933 
	C106.620857,105.389046 181.315979,62.288429 255.956070,19.092936 
	C266.032257,13.261681 276.245331,8.840741 288.118317,12.057631 
	C291.767151,13.046248 295.420990,14.458225 298.690613,16.339926 
	C375.599701,60.601799 452.473450,104.925217 529.306702,149.318726 
	C542.760071,157.091965 548.894165,169.052032 548.873901,184.548874 
	C548.789734,248.865829 548.838745,313.182953 548.838867,378.000000 
M189.021606,509.140686 
	C188.878265,507.554321 188.734940,505.967987 188.591599,504.381622 
	C187.966003,504.488922 187.340408,504.596222 186.714798,504.703522 
	C187.196350,506.486481 187.677902,508.269409 188.271286,510.702637 
	C189.577454,511.144836 191.871490,512.194275 192.032379,511.932465 
	C193.243210,509.962769 194.479813,507.794861 194.780060,505.563965 
	C194.945999,504.330872 193.322906,502.857025 192.506287,501.491669 
	C192.140320,501.725250 191.774353,501.958801 191.408386,502.192352 
	C194.023285,507.429474 193.400330,509.442902 189.021606,509.140686 
M209.018448,508.036469 
	C208.751450,507.142334 208.484451,506.248199 208.217453,505.354065 
	C207.799042,505.479004 207.380630,505.603973 206.962219,505.728912 
	C207.281464,506.809082 207.600723,507.889282 208.124298,509.716797 
	C209.251404,512.415771 211.681870,513.042664 213.615479,511.614166 
	C216.499405,509.483582 217.121979,506.104095 215.361435,502.861298 
	C214.110001,500.556244 212.133606,499.678680 209.463364,502.395905 
	C210.435303,502.535065 211.407257,502.674255 213.091705,503.061859 
	C212.891968,505.359406 212.692230,507.656921 212.492493,509.954468 
	C211.333313,509.548676 210.174133,509.142883 209.018448,508.036469 
M222.999725,239.500000 
	C222.999725,311.732727 222.999725,383.965454 222.999725,456.127014 
	C234.388489,456.127014 245.094482,456.127014 256.149536,456.127014 
	C256.149536,393.412048 256.149536,331.105957 256.149536,268.799835 
	C256.331177,268.791565 256.512817,268.783295 256.694458,268.774994 
	C265.597992,331.225922 274.501526,393.676819 283.414734,456.195740 
	C300.585968,456.195740 317.468201,456.195740 334.561951,456.195740 
	C335.189484,373.804871 335.814453,291.754181 336.438751,209.791702 
	C325.307526,209.791702 314.719910,209.791702 303.424835,209.791702 
	C303.424835,272.908325 303.424835,335.697906 303.424835,398.487518 
	C303.033813,398.508698 302.642792,398.529846 302.251740,398.551025 
	C293.523376,335.613434 284.795013,272.675873 276.068878,209.754425 
	C258.152618,209.754425 240.717880,209.754425 222.999725,209.754425 
	C222.999725,219.528549 222.999725,229.014267 222.999725,239.500000 
M114.838570,334.500000 
	C114.838570,374.437469 114.838570,414.374939 114.838570,454.480377 
	C125.839195,454.480377 136.377029,454.480377 147.291229,454.480377 
	C147.291229,437.521667 147.291229,420.915649 147.291229,403.834503 
	C152.951950,403.834503 158.240555,403.895721 163.527328,403.823639 
	C183.648941,403.549316 199.076416,392.254181 204.444275,373.512695 
	C205.571686,369.576385 205.922119,365.301361 205.934845,361.180206 
	C206.045990,325.199707 206.074921,289.218445 205.971313,253.237869 
	C205.905060,230.226532 190.107178,212.355225 167.736923,211.199814 
	C150.462021,210.307571 133.106018,210.983093 115.786079,210.991806 
	C115.537247,210.991928 115.288605,211.384796 114.838524,211.763992 
	C114.838524,252.231842 114.838524,292.865906 114.838570,334.500000 
M419.647095,215.713379 
	C415.725006,214.389328 411.890137,212.644745 407.866547,211.809845 
	C382.743652,206.596695 353.694519,225.558060 353.798676,257.917664 
	C353.959045,307.742523 353.802155,357.568359 353.866119,407.393646 
	C353.881622,419.463287 357.642731,430.126923 365.789948,439.356964 
	C383.466278,459.382599 417.198364,458.731750 434.301208,438.306519 
	C447.147705,422.964508 445.680054,405.139526 445.231934,387.039429 
	C434.355621,387.039429 423.928955,387.039429 412.999512,387.039429 
	C412.999512,393.850830 413.088867,400.470001 412.977325,407.085815 
	C412.831726,415.722321 407.469116,421.625732 399.813354,421.792786 
	C392.084137,421.961426 386.197876,415.790466 386.188690,407.090912 
	C386.136261,357.432220 386.137451,307.773407 386.191101,258.114716 
	C386.200409,249.520386 392.243927,243.065842 399.765167,243.203873 
	C407.171875,243.339813 412.774078,249.579346 412.981873,258.043976 
	C413.078644,261.985931 412.998444,265.932281 412.998444,269.768890 
	C424.145325,269.768890 434.699402,269.768890 445.199158,269.768890 
	C447.007996,246.893250 441.918671,227.616776 419.647095,215.713379 
M242.684677,150.657120 
	C247.569565,151.602814 249.996017,149.311584 252.035995,144.919937 
	C254.793945,138.982605 258.428894,133.425491 262.034912,127.933311 
	C262.716431,126.895332 265.440765,126.067917 266.508057,126.593674 
	C274.701050,130.629593 282.717499,135.023926 290.898621,139.365250 
	C285.177704,147.749863 280.093292,155.201660 274.387726,163.563828 
	C279.605804,161.791412 283.718109,160.193527 287.949707,159.029007 
	C290.703247,158.271271 292.526550,157.247543 292.219360,154.029541 
	C291.907379,150.760559 294.224365,150.177582 296.699402,150.016174 
	C300.985809,149.736679 302.990753,147.663559 303.410370,143.247345 
	C303.774658,139.413727 305.102600,135.671661 306.040131,131.740372 
	C318.489258,141.920441 330.346252,151.616287 342.203278,161.312149 
	C342.561035,160.938675 342.918793,160.565216 343.276550,160.191742 
	C338.162872,152.985962 333.049225,145.780167 327.788513,138.367203 
	C325.918213,140.479752 324.552063,142.022842 322.911041,143.876434 
	C318.219666,137.170761 313.866821,130.948959 309.252289,124.353111 
	C304.461578,127.410049 299.805206,130.235855 295.318329,133.309189 
	C293.251984,134.724548 291.789917,134.715332 289.755157,133.146088 
	C285.089539,129.547882 280.187134,126.256630 275.250244,122.747910 
	C270.713837,127.843277 267.384430,123.415146 263.365601,121.455444 
	C261.120728,124.444336 258.887238,127.418076 256.719452,130.304321 
	C249.291977,127.235847 249.282974,127.229027 244.799026,133.145676 
	C241.597443,137.370239 238.409607,141.605408 235.242935,145.856201 
	C232.994751,148.874100 231.588654,153.232361 226.297318,151.227661 
	C225.982269,151.108307 225.320175,151.457062 225.033585,151.778671 
	C221.586685,155.646957 218.180191,159.551254 213.970200,164.349976 
	C222.918655,163.779907 230.492020,163.297440 237.671417,162.840073 
	C239.161774,158.575485 240.504700,154.732819 242.684677,150.657120 
M168.303925,512.247986 
	C168.827972,510.764404 169.352036,509.280853 170.239624,506.768127 
	C171.089233,509.522003 171.567734,511.072998 172.046234,512.623962 
	C172.332367,512.567322 172.618484,512.510681 172.904617,512.454041 
	C172.904617,508.516052 172.904617,504.578094 172.904617,500.640106 
	C172.505325,500.607574 172.106033,500.575012 171.706741,500.542480 
	C171.256744,502.067535 170.806732,503.592621 170.017654,506.266754 
	C169.163757,503.526215 168.686295,501.993835 168.208832,500.461487 
	C167.625702,500.519196 167.042572,500.576935 166.459457,500.634674 
	C166.838623,504.581848 167.217789,508.529022 168.303925,512.247986 
M301.376953,508.979492 
	C302.218994,509.046875 303.542175,508.818939 303.802643,509.243286 
	C304.340820,510.120117 304.312805,511.344452 304.517700,512.425842 
	C304.884491,512.356079 305.251312,512.286255 305.618134,512.216492 
	C305.618134,508.391418 305.618134,504.566376 305.618134,500.741333 
	C305.313995,500.673615 305.009857,500.605927 304.705688,500.538208 
	C304.045502,502.082733 303.385315,503.627228 302.352020,506.044586 
	C301.506836,503.668091 300.985229,502.201416 300.463623,500.734741 
	C300.156250,500.791473 299.848846,500.848175 299.541443,500.904907 
	C299.541443,504.733978 299.541443,508.563049 299.541443,512.392151 
	C299.834961,512.461182 300.128448,512.530212 300.421967,512.599243 
	C300.715271,511.662354 301.008575,510.725464 301.376953,508.979492 
M356.489990,506.613739 
	C356.580017,505.806061 357.038574,504.743042 356.689697,504.239441 
	C355.712830,502.829346 354.402344,501.650360 353.223480,500.380219 
	C352.574463,501.664978 351.522552,502.901947 351.363129,504.244812 
	C351.062622,506.775391 351.276398,509.367035 351.276398,512.001404 
	C355.507050,512.502869 357.854645,511.758179 356.489990,506.613739 
M323.447601,502.083893 
	C322.522552,501.516541 321.572510,500.483582 320.680542,500.531525 
	C319.986237,500.568817 318.860870,501.915161 318.800018,502.743805 
	C318.574371,505.816528 318.710114,508.915833 318.710114,512.406311 
	C320.740875,512.201843 322.200287,512.054871 324.357178,511.837646 
	C320.344025,508.617523 320.344025,508.617523 323.676422,505.534637 
	C323.255737,504.552582 317.784851,504.975555 323.447601,502.083893 
M247.263031,507.322510 
	C247.530975,512.935364 248.095139,513.338074 253.065460,510.849884 
	C248.879272,509.486115 248.668411,507.714722 252.720505,506.067078 
	C251.506897,505.150848 250.690399,504.534424 249.824036,503.880341 
	C251.090378,502.815979 252.053452,502.006500 253.016525,501.197021 
	C252.863083,500.890930 252.709641,500.584808 252.556213,500.278687 
	C251.024597,500.375916 249.492996,500.473145 247.875290,500.575806 
	C247.636871,502.875519 247.450470,504.673462 247.263031,507.322510 
M286.337860,502.280640 
	C284.587311,501.470764 282.836792,500.660858 280.809906,499.723114 
	C281.631744,504.928345 282.246948,508.824982 282.862183,512.721619 
	C283.278656,512.729187 283.695129,512.736694 284.111603,512.744202 
	C284.659973,509.436798 285.208374,506.129395 286.337860,502.280640 
M372.576294,502.995667 
	C373.404022,502.512695 374.231750,502.029694 375.059509,501.546692 
	C374.958862,501.292450 374.858215,501.038177 374.757568,500.783936 
	C373.266510,500.783936 371.775421,500.783936 370.175537,500.783936 
	C370.175537,504.735931 370.175537,508.292816 370.175537,512.237305 
	C371.910553,512.138367 373.405273,512.053101 376.897369,511.853882 
	C371.166077,509.506836 370.936584,507.568024 375.042389,506.003937 
	C373.889954,505.063629 373.009369,504.345154 372.576294,502.995667 
M389.882996,500.885742 
	C384.688538,504.426117 390.841980,506.559448 391.065369,509.542145 
	C389.937347,510.099945 388.869385,510.627991 387.801453,511.156067 
	C387.996338,511.685913 388.191254,512.215759 388.386139,512.745605 
	C389.945374,512.208496 392.888336,511.489227 392.845398,511.163147 
	C392.495728,508.507629 391.587799,505.925629 390.796814,503.134308 
	C392.538513,502.043152 392.559326,501.845001 389.882996,500.885742 
M408.034790,500.668488 
	C407.468964,500.904297 406.388275,501.248840 406.411804,501.360168 
	C407.199921,505.091309 408.093292,508.800232 408.971313,512.512390 
	C409.187744,512.543396 409.404175,512.574402 409.620575,512.605408 
	C410.250549,508.682037 410.880524,504.758698 411.568359,500.475067 
	C410.717224,500.530121 409.771729,500.591248 408.034790,500.668488 
M230.154434,510.311615 
	C229.954254,510.890442 229.754059,511.469238 229.553848,512.048035 
	C231.056610,511.860535 233.156769,512.191162 233.894836,511.340363 
	C234.638901,510.482544 234.276535,508.395966 233.949387,506.949463 
	C233.582901,505.329163 232.711853,503.822998 231.757690,501.544342 
	C231.546188,501.655426 229.852600,502.003113 229.384598,502.954010 
	C228.975693,503.784851 229.948929,505.293884 230.306717,506.504700 
	C230.673126,507.744751 234.354126,508.428925 230.154434,510.311615 
M147.823410,505.920624 
	C148.190704,511.633545 149.143677,512.521240 155.024979,511.287354 
	C148.460938,510.195862 150.084564,505.888000 149.456177,502.015839 
	C148.937805,503.079407 148.419449,504.142944 147.823410,505.920624 
M190.617401,500.531158 
	C190.617401,500.531158 190.451828,500.434570 190.451828,500.434570 
	C190.451828,500.434570 190.474457,500.630219 190.617401,500.531158 
z"/>
<path fill="#FEFEFE" opacity="1.000000" stroke="none" 
	d="
M222.999725,239.000000 
	C222.999725,229.014267 222.999725,219.528549 222.999725,209.754425 
	C240.717880,209.754425 258.152618,209.754425 276.068878,209.754425 
	C284.795013,272.675873 293.523376,335.613434 302.251740,398.551025 
	C302.642792,398.529846 303.033813,398.508698 303.424835,398.487518 
	C303.424835,335.697906 303.424835,272.908325 303.424835,209.791702 
	C314.719910,209.791702 325.307526,209.791702 336.438751,209.791702 
	C335.814453,291.754181 335.189484,373.804871 334.561951,456.195740 
	C317.468201,456.195740 300.585968,456.195740 283.414734,456.195740 
	C274.501526,393.676819 265.597992,331.225922 256.694458,268.774994 
	C256.512817,268.783295 256.331177,268.791565 256.149536,268.799835 
	C256.149536,331.105957 256.149536,393.412048 256.149536,456.127014 
	C245.094482,456.127014 234.388489,456.127014 222.999725,456.127014 
	C222.999725,383.965454 222.999725,311.732727 222.999725,239.000000 
z"/>
<path fill="#FFFFFF" opacity="1.000000" stroke="none" 
	d="
M114.838547,334.000000 
	C114.838524,292.865906 114.838524,252.231842 114.838524,211.763992 
	C115.288605,211.384796 115.537247,210.991928 115.786079,210.991806 
	C133.106018,210.983093 150.462021,210.307571 167.736923,211.199814 
	C190.107178,212.355225 205.905060,230.226532 205.971313,253.237869 
	C206.074921,289.218445 206.045990,325.199707 205.934845,361.180206 
	C205.922119,365.301361 205.571686,369.576385 204.444275,373.512695 
	C199.076416,392.254181 183.648941,403.549316 163.527328,403.823639 
	C158.240555,403.895721 152.951950,403.834503 147.291229,403.834503 
	C147.291229,420.915649 147.291229,437.521667 147.291229,454.480377 
	C136.377029,454.480377 125.839195,454.480377 114.838570,454.480377 
	C114.838570,414.374939 114.838570,374.437469 114.838547,334.000000 
M173.564667,293.500122 
	C173.564362,280.350647 173.629578,267.200714 173.536636,254.051910 
	C173.488754,247.277969 171.473969,244.042526 166.045898,243.545349 
	C159.857697,242.978561 153.577682,243.414230 147.497772,243.414230 
	C147.497772,286.204132 147.497772,328.564606 147.497772,371.178497 
	C152.334259,371.178497 156.820129,371.182068 161.306015,371.177795 
	C171.396851,371.168243 173.553513,369.030731 173.560303,358.915924 
	C173.574707,337.444000 173.564514,315.972076 173.564667,293.500122 
z"/>
<path fill="#FEFEFE" opacity="1.000000" stroke="none" 
	d="
M419.979675,215.888702 
	C441.918671,227.616776 447.007996,246.893250 445.199158,269.768890 
	C434.699402,269.768890 424.145325,269.768890 412.998444,269.768890 
	C412.998444,265.932281 413.078644,261.985931 412.981873,258.043976 
	C412.774078,249.579346 407.171875,243.339813 399.765167,243.203873 
	C392.243927,243.065842 386.200409,249.520386 386.191101,258.114716 
	C386.137451,307.773407 386.136261,357.432220 386.188690,407.090912 
	C386.197876,415.790466 392.084137,421.961426 399.813354,421.792786 
	C407.469116,421.625732 412.831726,415.722321 412.977325,407.085815 
	C413.088867,400.470001 412.999512,393.850830 412.999512,387.039429 
	C423.928955,387.039429 434.355621,387.039429 445.231934,387.039429 
	C445.680054,405.139526 447.147705,422.964508 434.301208,438.306519 
	C417.198364,458.731750 383.466278,459.382599 365.789948,439.356964 
	C357.642731,430.126923 353.881622,419.463287 353.866119,407.393646 
	C353.802155,357.568359 353.959045,307.742523 353.798676,257.917664 
	C353.694519,225.558060 382.743652,206.596695 407.866547,211.809845 
	C411.890137,212.644745 415.725006,214.389328 419.979675,215.888702 
z"/>
<path fill="#F3F3F3" opacity="1.000000" stroke="none" 
	d="
M242.266144,150.773621 
	C240.504700,154.732819 239.161774,158.575485 237.671417,162.840073 
	C230.492020,163.297440 222.918655,163.779907 213.970200,164.349976 
	C218.180191,159.551254 221.586685,155.646957 225.033585,151.778671 
	C225.320175,151.457062 225.982269,151.108307 226.297318,151.227661 
	C231.588654,153.232361 232.994751,148.874100 235.242935,145.856201 
	C238.409607,141.605408 241.597443,137.370239 244.799026,133.145676 
	C249.282974,127.229027 249.291977,127.235847 256.719452,130.304321 
	C258.887238,127.418076 261.120728,124.444336 263.365601,121.455444 
	C267.384430,123.415146 270.713837,127.843277 275.250244,122.747910 
	C280.187134,126.256630 285.089539,129.547882 289.755157,133.146088 
	C291.789917,134.715332 293.251984,134.724548 295.318329,133.309189 
	C299.805206,130.235855 304.461578,127.410049 309.252289,124.353111 
	C313.866821,130.948959 318.219666,137.170761 322.911041,143.876434 
	C324.552063,142.022842 325.918213,140.479752 327.788513,138.367203 
	C333.049225,145.780167 338.162872,152.985962 343.276550,160.191742 
	C342.918793,160.565216 342.561035,160.938675 342.203278,161.312149 
	C330.346252,151.616287 318.489258,141.920441 306.040131,131.740372 
	C305.102600,135.671661 303.774658,139.413727 303.410370,143.247345 
	C302.990753,147.663559 300.985809,149.736679 296.699402,150.016174 
	C294.224365,150.177582 291.907379,150.760559 292.219360,154.029541 
	C292.526550,157.247543 290.703247,158.271271 287.949707,159.029007 
	C283.718109,160.193527 279.605804,161.791412 274.387726,163.563828 
	C280.093292,155.201660 285.177704,147.749863 290.898621,139.365250 
	C282.717499,135.023926 274.701050,130.629593 266.508057,126.593674 
	C265.440765,126.067917 262.716431,126.895332 262.034912,127.933311 
	C258.428894,133.425491 254.793945,138.982605 252.035995,144.919937 
	C249.996017,149.311584 247.569565,151.602814 242.266144,150.773621 
z"/>
<path fill="#D5D5D5" opacity="1.000000" stroke="none" 
	d="
M167.950439,512.362061 
	C167.217789,508.529022 166.838623,504.581848 166.459457,500.634674 
	C167.042572,500.576935 167.625702,500.519196 168.208832,500.461487 
	C168.686295,501.993835 169.163757,503.526215 170.017654,506.266754 
	C170.806732,503.592621 171.256744,502.067535 171.706741,500.542480 
	C172.106033,500.575012 172.505325,500.607574 172.904617,500.640106 
	C172.904617,504.578094 172.904617,508.516052 172.904617,512.454041 
	C172.618484,512.510681 172.332367,512.567322 172.046234,512.623962 
	C171.567734,511.072998 171.089233,509.522003 170.239624,506.768127 
	C169.352036,509.280853 168.827972,510.764404 167.950439,512.362061 
z"/>
<path fill="#E8E8E8" opacity="1.000000" stroke="none" 
	d="
M301.339417,509.384033 
	C301.008575,510.725464 300.715271,511.662354 300.421967,512.599243 
	C300.128448,512.530212 299.834961,512.461182 299.541443,512.392151 
	C299.541443,508.563049 299.541443,504.733978 299.541443,500.904907 
	C299.848846,500.848175 300.156250,500.791473 300.463623,500.734741 
	C300.985229,502.201416 301.506836,503.668091 302.352020,506.044586 
	C303.385315,503.627228 304.045502,502.082733 304.705688,500.538208 
	C305.009857,500.605927 305.313995,500.673615 305.618134,500.741333 
	C305.618134,504.566376 305.618134,508.391418 305.618134,512.216492 
	C305.251312,512.286255 304.884491,512.356079 304.517700,512.425842 
	C304.312805,511.344452 304.340820,510.120117 303.802643,509.243286 
	C303.542175,508.818939 302.218994,509.046875 301.339417,509.384033 
z"/>
<path fill="#DDDDDD" opacity="1.000000" stroke="none" 
	d="
M356.677704,507.000549 
	C357.854645,511.758179 355.507050,512.502869 351.276398,512.001404 
	C351.276398,509.367035 351.062622,506.775391 351.363129,504.244812 
	C351.522552,502.901947 352.574463,501.664978 353.223480,500.380219 
	C354.402344,501.650360 355.712830,502.829346 356.689697,504.239441 
	C357.038574,504.743042 356.580017,505.806061 356.677704,507.000549 
z"/>
<path fill="#E5E5E5" opacity="1.000000" stroke="none" 
	d="
M323.136353,502.279053 
	C317.784851,504.975555 323.255737,504.552582 323.676453,505.534607 
	C320.344025,508.617523 320.344025,508.617523 324.357178,511.837646 
	C322.200287,512.054871 320.740875,512.201843 318.710114,512.406311 
	C318.710114,508.915833 318.574371,505.816528 318.800018,502.743805 
	C318.860870,501.915161 319.986237,500.568817 320.680542,500.531525 
	C321.572510,500.483582 322.522552,501.516541 323.136353,502.279053 
z"/>
<path fill="#DBDBDB" opacity="1.000000" stroke="none" 
	d="
M247.263550,506.896973 
	C247.450470,504.673462 247.636871,502.875519 247.875290,500.575806 
	C249.492996,500.473145 251.024597,500.375916 252.556213,500.278687 
	C252.709641,500.584808 252.863083,500.890930 253.016525,501.197021 
	C252.053452,502.006500 251.090378,502.815979 249.824036,503.880341 
	C250.690399,504.534424 251.506897,505.150848 252.720505,506.067078 
	C248.668411,507.714722 248.879272,509.486115 253.065460,510.849884 
	C248.095139,513.338074 247.530975,512.935364 247.263550,506.896973 
z"/>
<path fill="#C6C6C6" opacity="1.000000" stroke="none" 
	d="
M286.047302,502.551331 
	C285.208374,506.129395 284.659973,509.436798 284.111603,512.744202 
	C283.695129,512.736694 283.278656,512.729187 282.862183,512.721619 
	C282.246948,508.824982 281.631744,504.928345 280.809906,499.723114 
	C282.836792,500.660858 284.587311,501.470764 286.047302,502.551331 
z"/>
<path fill="#F0F0F0" opacity="1.000000" stroke="none" 
	d="
M372.352539,503.311157 
	C373.009369,504.345154 373.889954,505.063629 375.042389,506.003937 
	C370.936584,507.568024 371.166077,509.506836 376.897369,511.853882 
	C373.405273,512.053101 371.910553,512.138367 370.175537,512.237305 
	C370.175537,508.292816 370.175537,504.735931 370.175537,500.783936 
	C371.775421,500.783936 373.266510,500.783936 374.757568,500.783936 
	C374.858215,501.038177 374.958862,501.292450 375.059509,501.546692 
	C374.231750,502.029694 373.404022,502.512695 372.352539,503.311157 
z"/>
<path fill="#D5D5D5" opacity="1.000000" stroke="none" 
	d="
M390.204102,500.772095 
	C392.559326,501.845001 392.538513,502.043152 390.796814,503.134308 
	C391.587799,505.925629 392.495728,508.507629 392.845398,511.163147 
	C392.888336,511.489227 389.945374,512.208496 388.386139,512.745605 
	C388.191254,512.215759 387.996338,511.685913 387.801453,511.156067 
	C388.869385,510.627991 389.937347,510.099945 391.065369,509.542145 
	C390.841980,506.559448 384.688538,504.426117 390.204102,500.772095 
z"/>
<path fill="#DDDDDD" opacity="1.000000" stroke="none" 
	d="
M408.430511,500.660461 
	C409.771729,500.591248 410.717224,500.530121 411.568359,500.475067 
	C410.880524,504.758698 410.250549,508.682037 409.620575,512.605408 
	C409.404175,512.574402 409.187744,512.543396 408.971313,512.512390 
	C408.093292,508.800232 407.199921,505.091309 406.411804,501.360168 
	C406.388275,501.248840 407.468964,500.904297 408.430511,500.660461 
z"/>
<path fill="#D5D5D5" opacity="1.000000" stroke="none" 
	d="
M230.549927,510.307495 
	C234.354126,508.428925 230.673126,507.744751 230.306717,506.504700 
	C229.948929,505.293884 228.975693,503.784851 229.384598,502.954010 
	C229.852600,502.003113 231.546188,501.655426 231.757690,501.544342 
	C232.711853,503.822998 233.582901,505.329163 233.949387,506.949463 
	C234.276535,508.395966 234.638901,510.482544 233.894836,511.340363 
	C233.156769,512.191162 231.056610,511.860535 229.553864,512.048035 
	C229.754059,511.469238 229.954254,510.890442 230.549927,510.307495 
z"/>
<path fill="#F3F3F3" opacity="1.000000" stroke="none" 
	d="
M209.920013,502.030640 
	C212.133606,499.678680 214.110001,500.556244 215.361435,502.861298 
	C217.121979,506.104095 216.499405,509.483582 213.615479,511.614166 
	C211.681870,513.042664 209.251404,512.415771 208.294983,509.280762 
	C208.648758,508.808868 208.831863,508.772980 209.014954,508.737091 
	C210.174133,509.142883 211.333313,509.548676 212.492493,509.954468 
	C212.692230,507.656921 212.891968,505.359406 212.487000,502.715332 
	C211.228210,502.256104 210.574112,502.143372 209.920013,502.030640 
z"/>
<path fill="#DDDDDD" opacity="1.000000" stroke="none" 
	d="
M147.862244,505.563538 
	C148.419449,504.142944 148.937805,503.079407 149.456177,502.015839 
	C150.084564,505.888000 148.460938,510.195862 155.024979,511.287354 
	C149.143677,512.521240 148.190704,511.633545 147.862244,505.563538 
z"/>
<path fill="#DBDBDB" opacity="1.000000" stroke="none" 
	d="
M189.006058,509.956726 
	C193.400330,509.442902 194.023285,507.429474 191.408386,502.192352 
	C191.774353,501.958801 192.140320,501.725250 192.506287,501.491669 
	C193.322906,502.857025 194.945999,504.330872 194.780060,505.563965 
	C194.479813,507.794861 193.243210,509.962769 192.032379,511.932465 
	C191.871490,512.194275 189.577454,511.144836 188.432175,510.400238 
	C188.593063,510.097839 189.006058,509.956726 189.006058,509.956726 
z"/>
<path fill="#595959" opacity="1.000000" stroke="none" 
	d="
M189.013824,509.548706 
	C189.006058,509.956726 188.593063,510.097839 188.376251,510.075104 
	C187.677902,508.269409 187.196350,506.486481 186.714798,504.703522 
	C187.340408,504.596222 187.966003,504.488922 188.591599,504.381622 
	C188.734940,505.967987 188.878265,507.554321 189.013824,509.548706 
z"/>
<path fill="#535353" opacity="1.000000" stroke="none" 
	d="
M209.016693,508.386780 
	C208.831863,508.772980 208.648758,508.808868 208.192825,508.907104 
	C207.600723,507.889282 207.281464,506.809082 206.962219,505.728912 
	C207.380630,505.603973 207.799042,505.479004 208.217453,505.354065 
	C208.484451,506.248199 208.751450,507.142334 209.016693,508.386780 
z"/>
<path fill="#535353" opacity="1.000000" stroke="none" 
	d="
M209.691681,502.213257 
	C210.574112,502.143372 211.228210,502.256104 212.130753,502.591125 
	C211.407257,502.674255 210.435303,502.535065 209.691681,502.213257 
z"/>
<path fill="#595959" opacity="1.000000" stroke="none" 
	d="
M190.545929,500.580688 
	C190.474457,500.630219 190.451828,500.434570 190.451828,500.434570 
	C190.451828,500.434570 190.617401,500.531158 190.545929,500.580688 
z"/>
<path fill="#4F4F4F" opacity="1.000000" stroke="none" 
	d="
M173.564529,294.000122 
	C173.564514,315.972076 173.574707,337.444000 173.560303,358.915924 
	C173.553513,369.030731 171.396851,371.168243 161.306015,371.177795 
	C156.820129,371.182068 152.334259,371.178497 147.497772,371.178497 
	C147.497772,328.564606 147.497772,286.204132 147.497772,243.414230 
	C153.577682,243.414230 159.857697,242.978561 166.045898,243.545349 
	C171.473969,244.042526 173.488754,247.277969 173.536636,254.051910 
	C173.629578,267.200714 173.564362,280.350647 173.564529,294.000122 
z"/>
</svg>